<?xml version="1.0" encoding="iso-8859-1"?>
<!-- Generator: Adobe Illustrator 17.0.0, SVG Export Plug-In . SVG Version: 6.00 Build 0)  -->
<!DOCTYPE svg PUBLIC "-//W3C//DTD SVG 1.1//EN" "http://www.w3.org/Graphics/SVG/1.1/DTD/svg11.dtd">
<svg version="1.1" id="Layer_1" xmlns="http://www.w3.org/2000/svg" xmlns:xlink="http://www.w3.org/1999/xlink" x="0px" y="0px"
	 width="122px" height="122px" viewBox="0 0 122 122" style="enable-background:new 0 0 122 122;" xml:space="preserve">
<g>
	<g>
		
			<radialGradient id="SVGID_1_" cx="51.6334" cy="49.0291" r="65.9442" gradientTransform="matrix(0.5228 0.8524 -0.8894 0.5455 68.2468 -21.7314)" gradientUnits="userSpaceOnUse">
			<stop  offset="0.0357" style="stop-color:#85BDC7"/>
			<stop  offset="0.9286" style="stop-color:#4299A8"/>
			<stop  offset="1" style="stop-color:#307982"/>
		</radialGradient>
		<circle style="fill:url(#SVGID_1_);stroke:#025672;stroke-width:2;stroke-miterlimit:10;" cx="60.911" cy="61.253" r="58.998"/>
		<circle style="fill:none;stroke:#34848F;stroke-miterlimit:10;" cx="60.911" cy="61.253" r="55.632"/>
	</g>
	<g>
		<path style="fill:#025672;" d="M84.806,80.28l-0.027-13.93l-0.177,0.604l0.185-0.771l0.004,0.066l0.013-0.031l-0.016-0.041
			l0.02-0.014l-0.011,0.002l0.006-0.008l-0.008-0.01l0.006,0.004l-0.002-0.004l0.017-0.01h-0.018h0.001h-0.003l0.002-0.002
			l-0.004,0.002l-0.003-0.006l-0.004,0.004l0.002,0.002l-0.001,0.004l-0.003-0.004l-0.002,0.025l-0.001-0.004l-0.003,0.008v-0.02
			l-0.001,0.002l-0.001-0.002l0.002-0.002l-0.002,0.002l-0.003-0.008l-0.006,0.008h0.008l-0.09,0.049l0.03-0.02l-1.12,0.164
			l1.18-0.203l-0.002,0.002l0.005,0.002v-0.008l-0.001,0.002l-0.008-0.006l0.009,0.004l-0.029-0.057l-11.112-8.643
			c0.158-0.203,0.322-0.402,0.493-0.6L84.373,65.7l-0.074-0.08l0.41,0.371l-6.984-12.119c0.224-0.131,0.453-0.254,0.685-0.373
			l6.153,12.109l-0.208-0.525l0.424,0.947v-0.008l0.019,0.041l-0.02-0.379l0.034,0.385l-0.003,0.008l0.003,0.002v-0.002l0.006,0.008
			l-0.005-0.002l0.001,0.008l-0.003,0.004l0.007,0.014h-0.001l0.001,0.002h0.001l0.001,0.002l0.005-0.006l-0.002,0.002l0.012-0.01
			l0.006,0.006l0.006-0.006h-0.002l0.013-0.014l-0.004,0.012l0.01-0.016l11.812-7.668c0.155,0.24,0.306,0.484,0.448,0.738
			l-12.254,6.943l0.021-0.004l-0.034,0.014l-0.002-0.002l-0.002,0.002l0.001-0.002l-0.012,0.004l0.003,0.002l-0.014,0.008
			l0.007-0.01l-0.017,0.012l0.002,0.002h-0.001l0.002,0.004h-0.001l0.001,0.002v-0.002l0.003,0.004h-0.001l0.006,0.012h-0.001
			l0.002,0.004l-0.016-0.006l0.021,0.012l-0.001,0.002l0.001-0.002l0.007,0.008h-0.003l0.043,0.025l10.146,9.732
			c-0.177,0.184-0.359,0.365-0.547,0.541l-9.596-10.209l0.229,0.451l-0.152-0.264l5.684,12.584
			c-0.216,0.098-0.435,0.189-0.653,0.277L84.83,66.282l0.001,0.008l-0.02-0.053L84.793,66.3l0.79,13.959
			C85.324,80.272,85.065,80.28,84.806,80.28z M80.255,79.528c-0.337-0.113-0.668-0.238-0.994-0.379l5.34-12.459L80.255,79.528z
			 M75.548,76.831c-0.223-0.191-0.437-0.389-0.646-0.594l9.781-9.986l-0.329,0.406L75.548,76.831z M72.235,72.628
			c-0.15-0.291-0.293-0.588-0.424-0.895l12.654-5.424L72.235,72.628z M97.527,72.335l-11.995-5.898l12.45,4.863
			C97.844,71.653,97.692,71.999,97.527,72.335z M70.728,67.579c-0.035-0.336-0.059-0.676-0.068-1.023l13.653-0.395L70.728,67.579z
			 M98.935,66.981l-13.998-0.838l-0.007,0.002l-0.025-0.002h0.03l-0.033-0.018h0.155l-0.108,0.016l0.547-0.016H98.96
			C98.96,66.415,98.952,66.7,98.935,66.981z M84.974,66.091l0.075-0.031l13.648-2.649c0.044,0.23,0.083,0.459,0.117,0.691
			L84.974,66.091z M84.819,66.046l3.269-13.689c0.245,0.059,0.487,0.123,0.725,0.193L84.819,66.046z M84.503,66.034l-13.298-3.828
			c0.09-0.312,0.19-0.619,0.299-0.918L84.503,66.034z M84.769,65.88l-2.053-13.754c0.282-0.041,0.569-0.076,0.855-0.1L84.769,65.88z
			 M85.059,65.788l7.848-11.27c0.275,0.191,0.544,0.394,0.805,0.605L85.059,65.788z"/>
	</g>
	<g>
		<path style="fill:#025672;" d="M36.941,79.28l-0.027-13.93l-0.177,0.604l0.185-0.771l0.004,0.066l0.013-0.031l-0.016-0.041
			l0.02-0.014l-0.011,0.002l0.006-0.008l-0.008-0.01l0.006,0.004l-0.002-0.004l0.017-0.01h-0.018h0.001h-0.003l0.002-0.002
			l-0.004,0.002l-0.003-0.006l-0.004,0.004l0.002,0.002l-0.001,0.004l-0.003-0.004l-0.002,0.025l-0.001-0.004l-0.003,0.008v-0.02
			l-0.001,0.002l-0.001-0.002l0.002-0.002l-0.002,0.002l-0.003-0.008l-0.006,0.008h0.008l-0.09,0.049l0.03-0.02l-1.12,0.164
			l1.18-0.203l-0.002,0.002l0.005,0.002v-0.008l-0.001,0.002l-0.008-0.006l0.009,0.004l-0.029-0.057l-11.112-8.643
			c0.158-0.203,0.322-0.402,0.493-0.6L36.507,64.7l-0.074-0.08l0.41,0.371l-6.984-12.119c0.224-0.131,0.453-0.254,0.685-0.373
			l6.153,12.109l-0.208-0.525l0.424,0.947v-0.008l0.019,0.041l-0.02-0.379l0.034,0.385l-0.003,0.008l0.003,0.002v-0.002l0.006,0.008
			l-0.005-0.002l0.001,0.008l-0.003,0.004l0.007,0.014h-0.001l0.001,0.002h0.001l0.001,0.002l0.005-0.006l-0.002,0.002l0.012-0.01
			l0.006,0.006l0.006-0.006h-0.002l0.013-0.014l-0.004,0.012l0.01-0.016l11.812-7.668c0.155,0.24,0.306,0.484,0.448,0.738
			l-12.254,6.943l0.022-0.004l-0.034,0.014l-0.002-0.002l-0.002,0.002l0.001-0.002l-0.012,0.004l0.003,0.002l-0.014,0.008
			l0.007-0.01l-0.017,0.012l0.002,0.002h-0.001l0.002,0.004h-0.001l0.001,0.002v-0.002l0.003,0.004H36.96l0.006,0.012h-0.001
			l0.002,0.004l-0.016-0.006l0.021,0.012l-0.001,0.002l0.001-0.002l0.007,0.008h-0.003l0.043,0.025l10.146,9.732
			c-0.177,0.184-0.359,0.365-0.547,0.541l-9.596-10.209l0.228,0.451l-0.152-0.264l5.684,12.584
			c-0.216,0.098-0.434,0.189-0.653,0.277l-5.164-13.014l0.001,0.008l-0.02-0.053L36.928,65.3l0.79,13.959
			C37.458,79.272,37.2,79.28,36.941,79.28z M32.39,78.528c-0.337-0.113-0.668-0.238-0.994-0.379l5.34-12.459L32.39,78.528z
			 M27.683,75.831c-0.223-0.191-0.437-0.389-0.647-0.594l9.781-9.986l-0.329,0.406L27.683,75.831z M24.37,71.628
			c-0.15-0.291-0.293-0.588-0.424-0.895L36.6,65.31L24.37,71.628z M49.662,71.335l-11.995-5.898l12.45,4.863
			C49.979,70.653,49.827,70.999,49.662,71.335z M22.863,66.579c-0.035-0.336-0.059-0.676-0.068-1.023l13.653-0.395L22.863,66.579z
			 M51.07,65.981l-13.998-0.838l-0.007,0.002l-0.025-0.002h0.03l-0.033-0.018h0.155l-0.108,0.016l0.547-0.016h13.465
			C51.095,65.415,51.086,65.7,51.07,65.981z M37.109,65.091l0.075-0.031l13.648-2.649c0.044,0.23,0.083,0.459,0.117,0.691
			L37.109,65.091z M36.954,65.046l3.269-13.689c0.245,0.059,0.487,0.123,0.725,0.193L36.954,65.046z M36.638,65.034L23.34,61.206
			c0.09-0.312,0.191-0.619,0.299-0.918L36.638,65.034z M36.904,64.88l-2.053-13.754c0.282-0.041,0.569-0.076,0.855-0.1L36.904,64.88
			z M37.194,64.788l7.848-11.27c0.275,0.191,0.544,0.394,0.805,0.605L37.194,64.788z"/>
	</g>
	<g>
		<circle style="fill:none;stroke:#FFFFFF;stroke-width:4;stroke-miterlimit:10;" cx="36.945" cy="65.352" r="15.807"/>
		<circle style="fill:none;stroke:#FFFFFF;stroke-width:4;stroke-miterlimit:10;" cx="84.81" cy="66.153" r="15.807"/>
		<g>
			<g>
				<path style="fill:none;stroke:#FFFFFF;stroke-width:4;stroke-miterlimit:10;" d="M36.945,65.352c0,0,6.927-6.57,8.081-10.389
					c1.155-3.82,4.973-15.275,4.973-15.275s-2.93-2.131,0-4.439l3.641,1.688"/>
				<g>
					<circle style="fill:#FFFFFF;" cx="36.945" cy="65.352" r="4.512"/>
				</g>
			</g>
		</g>
		<g>
			<g>
				<polyline style="fill:none;stroke:#FFFFFF;stroke-width:4;stroke-miterlimit:10;" points="84.81,66.153 71.49,46.792 
					72.822,43.063 				"/>
				<g>
					<circle style="fill:#FFFFFF;" cx="84.81" cy="66.153" r="4.512"/>
				</g>
			</g>
		</g>
		<path style="fill:#FFFFFF;stroke:#FFFFFF;stroke-width:3;stroke-miterlimit:10;" d="M66.605,40.399c0,0-3.374,0.799-0.977,1.865
			c2.398,1.066,4.085,0.533,5.861,0.799c1.776,0.268,4.618,1.865,5.684,1.064c1.065-0.797,0.799-3.906-1.599-4.172
			C73.177,39.688,71.045,40.577,66.605,40.399z"/>
		
			<polyline style="fill:none;stroke:#FFFFFF;stroke-width:4;stroke-linecap:square;stroke-linejoin:round;stroke-miterlimit:10;" points="
			49.082,45.479 71.49,46.792 63.771,69.667 84.81,66.153 		"/>
		<g>
			<g>
				<line style="fill:none;stroke:#FFFFFF;stroke-width:4;stroke-miterlimit:10;" x1="46.75" y1="48.546" x2="63.771" y2="69.667"/>
				<g>
					<circle style="fill:#FFFFFF;" cx="63.771" cy="69.667" r="6.016"/>
				</g>
			</g>
		</g>
		
			<line style="display:none;fill:none;stroke:#FFFFFF;stroke-width:3.5;stroke-linecap:square;stroke-linejoin:round;stroke-miterlimit:10;" x1="62.839" y1="63.007" x2="64.768" y2="76.327"/>
		
			<line style="display:none;fill:none;stroke:#FFFFFF;stroke-width:3.5;stroke-miterlimit:10;" x1="62.839" y1="76.327" x2="66.446" y2="76.69"/>
		
			<line style="display:none;fill:none;stroke:#FFFFFF;stroke-width:3.5;stroke-miterlimit:10;" x1="61.054" y1="61.919" x2="64.679" y2="61.972"/>
	</g>
</g>
</svg>
