<?xml version="1.0" encoding="utf-8"?>
<!-- Generator: Adobe Illustrator 17.0.0, SVG Export Plug-In . SVG Version: 6.00 Build 0)  -->
<!DOCTYPE svg PUBLIC "-//W3C//DTD SVG 1.1//EN" "http://www.w3.org/Graphics/SVG/1.1/DTD/svg11.dtd">
<svg version="1.1" id="Layer_1" xmlns="http://www.w3.org/2000/svg" xmlns:xlink="http://www.w3.org/1999/xlink" x="0px" y="0px"
	 width="122px" height="122px" viewBox="0 0 122 122" enable-background="new 0 0 122 122" xml:space="preserve">
<g>
	
		<radialGradient id="SVGID_1_" cx="52.1778" cy="48.825" r="65.9442" gradientTransform="matrix(0.5228 0.8524 -0.8894 0.5455 68.3251 -22.2882)" gradientUnits="userSpaceOnUse">
		<stop  offset="0.0357" style="stop-color:#85BDC7"/>
		<stop  offset="0.9286" style="stop-color:#4299A8"/>
		<stop  offset="1" style="stop-color:#307982"/>
	</radialGradient>
	<circle fill="url(#SVGID_1_)" stroke="#025672" stroke-width="2" stroke-miterlimit="10" cx="61.456" cy="61.049" r="58.998"/>
	<circle fill="none" stroke="#34848F" stroke-miterlimit="10" cx="61.456" cy="61.049" r="55.632"/>
	<path fill="#0A5B60" d="M77,33.5c0-0.828-0.672-1.5-1.5-1.5h-27c-0.828,0-1.5,0.672-1.5,1.5l0,0c0,0.828,0.672,1.5,1.5,1.5h27
		C76.328,35,77,34.328,77,33.5L77,33.5z"/>
	<path fill="#0A5B60" d="M49.385,66.908c2.498,0,4.537,1.903,4.791,4.339c0.018-0.167,0.051-0.329,0.051-0.5
		c0-2.674-2.172-4.839-4.842-4.839c-2.678,0-4.843,2.165-4.843,4.839c0,0.171,0.033,0.333,0.05,0.5
		C44.846,68.811,46.879,66.908,49.385,66.908z"/>
	<path fill="#0A5B60" d="M74.193,66.905c2.505,0,4.539,1.904,4.792,4.342c0.018-0.167,0.051-0.329,0.051-0.5
		c0-2.677-2.167-4.842-4.843-4.842c-2.669,0-4.842,2.165-4.842,4.842c0,0.171,0.033,0.333,0.051,0.5
		C69.656,68.81,71.695,66.905,74.193,66.905z"/>
	<path fill="#FFFFFF" d="M69.64,25H53.663C45.519,25,39,31.868,39,40.012v36.263C39,79.323,41.388,82,44.435,82H45v2.867
		c0,2.376,2.125,4.302,4.5,4.302s4.5-1.926,4.5-4.302V82h15v2.867c0,2.376,2.125,4.302,4.5,4.302s4.5-1.926,4.5-4.302V82h0.867
		C81.916,82,84,79.323,84,76.274V40.012C84,31.868,77.783,25,69.64,25z M49.385,75.585c-2.678,0-4.843-2.166-4.843-4.838
		c0-2.674,2.165-4.839,4.843-4.839c2.67,0,4.842,2.165,4.842,4.839C54.227,73.419,52.055,75.585,49.385,75.585z M49.516,56
		C47.434,56,47,54.293,47,52.213v-8.824C47,37.833,50.254,32,55.81,32h11.9C73.267,32,77,37.833,77,43.389v8.824
		C77,54.293,76.085,56,74.006,56H49.516z M74.193,75.587c-2.669,0-4.842-2.165-4.842-4.84c0-2.677,2.173-4.842,4.842-4.842
		c2.676,0,4.843,2.165,4.843,4.842C79.036,73.422,76.869,75.587,74.193,75.587z"/>
</g>
</svg>
