<?xml version="1.0" encoding="utf-8"?>
<!-- Generator: Adobe Illustrator 17.0.0, SVG Export Plug-In . SVG Version: 6.00 Build 0)  -->
<!DOCTYPE svg PUBLIC "-//W3C//DTD SVG 1.1//EN" "http://www.w3.org/Graphics/SVG/1.1/DTD/svg11.dtd">
<svg version="1.1" id="Layer_1" xmlns="http://www.w3.org/2000/svg" xmlns:xlink="http://www.w3.org/1999/xlink" x="0px" y="0px"
	 width="122px" height="122px" viewBox="0 0 122 122" enable-background="new 0 0 122 122" xml:space="preserve">
<g>
	
		<radialGradient id="SVGID_1_" cx="51.6334" cy="48.825" r="65.9442" gradientTransform="matrix(0.5228 0.8524 -0.8894 0.5455 68.0653 -21.8241)" gradientUnits="userSpaceOnUse">
		<stop  offset="0.0357" style="stop-color:#85BDC7"/>
		<stop  offset="0.9286" style="stop-color:#4299A8"/>
		<stop  offset="1" style="stop-color:#307982"/>
	</radialGradient>
	<circle fill="url(#SVGID_1_)" stroke="#025672" stroke-width="2" stroke-miterlimit="10" cx="60.911" cy="61.049" r="58.998"/>
	<circle fill="none" stroke="#34848F" stroke-miterlimit="10" cx="60.912" cy="61.049" r="55.632"/>
	<path fill="#0A5B60" d="M60.912,29.396c-13.808,0-25,11.193-25,25c0,5.581,1.829,10.734,4.919,14.895
		c4.556,6.132,20.081,22.339,20.081,22.339s15.526-16.207,20.081-22.34c3.09-4.16,4.919-9.313,4.919-14.894
		C85.912,40.59,74.719,29.396,60.912,29.396z M60.913,66.364c-6.61,0-11.968-5.358-11.968-11.968c0-6.61,5.358-11.968,11.968-11.968
		c6.61,0,11.968,5.357,11.968,11.968C72.88,61.006,67.522,66.364,60.913,66.364z"/>
	<path fill="#FFFFFF" d="M60.912,26.006c-13.808,0-25,11.193-25,25c0,5.58,1.829,10.733,4.919,14.894
		c4.556,6.132,20.081,22.339,20.081,22.339s15.526-16.207,20.081-22.34c3.09-4.16,4.919-9.313,4.919-14.894
		C85.912,37.199,74.719,26.006,60.912,26.006z M60.913,62.973c-6.61,0-11.968-5.359-11.968-11.968
		c0-6.61,5.358-11.968,11.968-11.968c6.61,0,11.968,5.357,11.968,11.968C72.88,57.615,67.522,62.973,60.913,62.973z"/>
</g>
</svg>
