<?xml version="1.0" encoding="utf-8"?>
<!-- Generator: Adobe Illustrator 17.0.0, SVG Export Plug-In . SVG Version: 6.00 Build 0)  -->
<!DOCTYPE svg PUBLIC "-//W3C//DTD SVG 1.1//EN" "http://www.w3.org/Graphics/SVG/1.1/DTD/svg11.dtd">
<svg version="1.1" id="Layer_1" xmlns="http://www.w3.org/2000/svg" xmlns:xlink="http://www.w3.org/1999/xlink" x="0px" y="0px"
	 width="122px" height="122px" viewBox="0 0 122 122" enable-background="new 0 0 122 122" xml:space="preserve">
<g>
	
		<radialGradient id="SVGID_1_" cx="51.9669" cy="49.0291" r="65.9442" gradientTransform="matrix(0.5228 0.8524 -0.8894 0.5455 68.4059 -22.0156)" gradientUnits="userSpaceOnUse">
		<stop  offset="0.0357" style="stop-color:#85BDC7"/>
		<stop  offset="0.9286" style="stop-color:#4299A8"/>
		<stop  offset="1" style="stop-color:#307982"/>
	</radialGradient>
	<circle fill="url(#SVGID_1_)" stroke="#025672" stroke-width="2" stroke-miterlimit="10" cx="61.245" cy="61.253" r="58.998"/>
	<circle fill="none" stroke="#34848F" stroke-miterlimit="10" cx="61.245" cy="61.253" r="55.632"/>
	<path fill="#0A5B60" d="M77,34.5c0-0.828-0.672-1.5-1.5-1.5h-27c-0.828,0-1.5,0.672-1.5,1.5l0,0c0,0.828,0.672,1.5,1.5,1.5h27
		C76.328,36,77,35.328,77,34.5L77,34.5z"/>
	<g>
		<path fill="#0A5B60" d="M49.174,67.112c2.498,0,4.537,1.904,4.791,4.34c0.018-0.168,0.051-0.33,0.051-0.5
			c0-2.674-2.172-4.84-4.842-4.84c-2.678,0-4.843,2.166-4.843,4.84c0,0.17,0.033,0.332,0.05,0.5
			C44.635,69.017,46.668,67.112,49.174,67.112z"/>
		<path fill="#0A5B60" d="M73.982,67.11c2.505,0,4.539,1.904,4.792,4.342c0.018-0.168,0.051-0.33,0.051-0.5
			c0-2.678-2.167-4.842-4.843-4.842c-2.669,0-4.842,2.164-4.842,4.842c0,0.17,0.033,0.332,0.051,0.5
			C69.445,69.015,71.484,67.11,73.982,67.11z"/>
	</g>
	<path fill="#FFFFFF" d="M70.043,24H53.518C45.094,24,38,29.973,38,38.397v37.508C38,79.058,40.821,82,43.973,82h2.766
		l-4.103,16.872c-0.205,0.854,0.32,1.615,1.173,1.821c0.125,0.029,0.25-0.003,0.373-0.003c0.717,0,1.369-0.513,1.543-1.241
		l0.938-3.713C46.824,95.78,46.989,96,47.163,96h29.236c0.311,0,0.598-0.282,0.856-0.415l0.972,3.94
		c0.177,0.729,0.827,1.167,1.544,1.167c0.123,0,0.249-0.038,0.373-0.068c0.854-0.207,1.379-0.885,1.174-1.736L77.213,82h2.374
		C82.74,82,85,79.058,85,75.905V38.397C85,29.973,78.466,24,70.043,24z M47,43.593C47,38.038,50.043,33,55.599,33h11.9
		C73.056,33,77,38.038,77,43.593v8.824C77,54.497,75.874,57,73.795,57h-24.49C47.223,57,47,54.497,47,52.417V43.593z M44.331,70.952
		c0-2.674,2.165-4.84,4.843-4.84c2.67,0,4.842,2.166,4.842,4.84c0,2.672-2.172,4.838-4.842,4.838
		C46.496,75.79,44.331,73.624,44.331,70.952z M73.942,82l0.612,3H49.397l0.611-3H73.942z M47.562,92l0.917-3h26.648
		c0.115,0,0.227-0.422,0.337-0.441L76.39,92H47.562z M73.982,75.792c-2.669,0-4.842-2.166-4.842-4.84
		c0-2.678,2.173-4.842,4.842-4.842c2.676,0,4.843,2.164,4.843,4.842C78.825,73.626,76.658,75.792,73.982,75.792z"/>
</g>
</svg>
