<?xml version="1.0" encoding="utf-8"?>
<!-- Generator: Adobe Illustrator 17.0.0, SVG Export Plug-In . SVG Version: 6.00 Build 0)  -->
<!DOCTYPE svg PUBLIC "-//W3C//DTD SVG 1.1//EN" "http://www.w3.org/Graphics/SVG/1.1/DTD/svg11.dtd">
<svg version="1.1" id="Layer_1" xmlns="http://www.w3.org/2000/svg" xmlns:xlink="http://www.w3.org/1999/xlink" x="0px" y="0px"
	 width="122px" height="122px" viewBox="0 0 122 122" enable-background="new 0 0 122 122" xml:space="preserve">
<g>
	
		<radialGradient id="SVGID_1_" cx="51.6334" cy="48.825" r="65.9442" gradientTransform="matrix(0.5228 0.8524 -0.8894 0.5455 68.0653 -21.8241)" gradientUnits="userSpaceOnUse">
		<stop  offset="0.0357" style="stop-color:#85BDC7"/>
		<stop  offset="0.9286" style="stop-color:#4299A8"/>
		<stop  offset="1" style="stop-color:#307982"/>
	</radialGradient>
	<circle fill="url(#SVGID_1_)" stroke="#025672" stroke-width="2" stroke-miterlimit="10" cx="60.911" cy="61.049" r="58.998"/>
	<circle fill="none" stroke="#34848F" stroke-miterlimit="10" cx="60.911" cy="61.049" r="55.632"/>
	<g>
		<path fill="#0A5B60" d="M58.451,93.851c-1.415,0.354-9.305,4.482-9.305,4.482l1.366-3.229l8.309-8.309
			c0,0-1.809-8.526-1.985-11.178c-0.177-2.651-0.924-13.3-0.924-13.3l-26.695,11.49l0.174-4.423c0,0,4.414-4.071,6.005-6.016
			c1.591-1.944,19.788-15.567,19.788-15.567s0.332-7.234,0.685-14.659s3.937-9.378,5.044-9.378c1.107,0,4.69,1.953,5.044,9.378
			s0.685,14.589,0.685,14.589S84.837,61.39,86.428,63.334c1.591,1.944,6.005,6.033,6.005,6.033l0.174,4.431L65.912,62.313
			c0,0-0.619,10.521-0.796,13.173c-0.177,2.651-1.857,11.051-1.857,11.051l8.309,8.309l1.237,3.358c0,0-7.955-4.064-9.369-4.418
			c0,0-1.632,1.226-2.525,1.226C60.019,95.012,58.451,93.851,58.451,93.851z"/>
	</g>
	<g>
		<path fill="#FFFFFF" d="M58.451,91.851c-1.415,0.354-9.305,4.482-9.305,4.482l1.366-3.229l8.309-8.309
			c0,0-1.809-8.526-1.985-11.178c-0.177-2.651-0.924-13.3-0.924-13.3l-26.695,11.49l0.174-4.423c0,0,4.414-4.071,6.005-6.016
			c1.591-1.944,19.788-15.567,19.788-15.567s0.332-7.234,0.685-14.659s3.937-9.378,5.044-9.378c1.107,0,4.69,1.953,5.044,9.378
			s0.685,14.589,0.685,14.589S84.837,59.39,86.428,61.334c1.591,1.944,6.005,6.033,6.005,6.033l0.174,4.431L65.912,60.313
			c0,0-0.619,10.521-0.796,13.173c-0.177,2.651-1.857,11.051-1.857,11.051l8.309,8.309l1.237,3.358c0,0-7.955-4.064-9.369-4.418
			c0,0-1.632,1.226-2.525,1.226C60.019,93.012,58.451,91.851,58.451,91.851z"/>
	</g>
</g>
</svg>
