<?xml version="1.0" encoding="utf-8"?>
<!-- Generator: Adobe Illustrator 17.0.0, SVG Export Plug-In . SVG Version: 6.00 Build 0)  -->
<!DOCTYPE svg PUBLIC "-//W3C//DTD SVG 1.1//EN" "http://www.w3.org/Graphics/SVG/1.1/DTD/svg11.dtd">
<svg version="1.1" id="Layer_1" xmlns="http://www.w3.org/2000/svg" xmlns:xlink="http://www.w3.org/1999/xlink" x="0px" y="0px"
	 width="122px" height="122px" viewBox="0 0 122 122" enable-background="new 0 0 122 122" xml:space="preserve">
<g>
	<g>
		
			<radialGradient id="SVGID_1_" cx="245.9865" cy="444.9625" r="65.9442" gradientTransform="matrix(0.5228 0.8524 0.8894 -0.5455 -472.7171 82.0744)" gradientUnits="userSpaceOnUse">
			<stop  offset="0.0357" style="stop-color:#85BDC7"/>
			<stop  offset="0.9286" style="stop-color:#4299A8"/>
			<stop  offset="1" style="stop-color:#307982"/>
		</radialGradient>
		<circle fill="url(#SVGID_1_)" stroke="#025672" stroke-width="2" stroke-miterlimit="10" cx="60.911" cy="61.253" r="58.998"/>
		<circle fill="none" stroke="#34848F" stroke-miterlimit="10" cx="60.911" cy="61.253" r="55.632"/>
	</g>
	<g id="_x36_bCuOK_1_">
		<g>
			<path fill="#0A5B60" d="M38.381,63.718c1.952,4.097,3.841,8.081,5.748,12.056c0.626,1.305,1.332,2.623,0.236,3.977
				c-1.17,1.446-2.802,2.142-4.576,1.711c-0.837-0.203-1.771-1.076-2.156-1.886c-2.043-4.292-3.924-8.662-5.865-13.003
				c-0.511-1.143-2.996-1.945-3.928-1.183c-0.289,0.236-0.345,0.871-0.349,1.325c-0.027,3.832-0.006,7.665-0.021,11.497
				c-0.009,2.408-1.105,3.367-3.769,3.354c-2.524-0.013-3.769-1.138-3.77-3.441c-0.004-11.153-0.006-22.307,0.001-33.46
				c0.002-2.54,1.146-3.671,3.696-3.678c3.341-0.009,6.682-0.009,10.023,0c5.754,0.014,9.929,2.973,11.322,8.01
				c1.536,5.553-0.546,11.043-5.285,13.933C39.317,63.156,38.942,63.38,38.381,63.718z M27.478,53.529c0.001,0,0.003,0,0.004,0
				c0,1.665-0.041,3.333,0.033,4.995c0.016,0.355,0.428,0.976,0.688,0.993c2.201,0.139,4.405,0.19,6.417-0.995
				c2.182-1.285,3.072-3.268,2.896-5.679c-0.186-2.545-1.568-4.329-4.096-4.924c-1.458-0.344-2.994-0.361-4.495-0.516
				c-1.049-0.108-1.514,0.313-1.464,1.426C27.53,50.392,27.478,51.962,27.478,53.529z"/>
			<path fill="#0A5B60" d="M95.18,63.73c1.969,4.14,3.865,8.17,5.804,12.18c0.637,1.319,1.307,2.593,0.106,3.932
				c-1.285,1.434-2.956,2.082-4.767,1.595c-0.786-0.212-1.587-1.147-1.967-1.95c-1.801-3.809-3.454-7.688-5.169-11.538
				c-1.31-2.939-1.317-2.936-4.747-2.6c-0.026,0.483-0.076,0.998-0.077,1.512c-0.007,3.733,0.006,7.467-0.008,11.2
				c-0.009,2.399-1.171,3.482-3.706,3.503c-2.685,0.022-3.894-1.005-3.897-3.439c-0.017-11.102-0.02-22.204,0.001-33.306
				c0.005-2.885,1.03-3.832,3.96-3.835c3.242-0.003,6.484-0.006,9.727,0.001c5.647,0.013,10.144,3.018,11.282,7.854
				c1.384,5.884-0.167,10.981-5.248,14.084C96.101,63.151,95.733,63.385,95.18,63.73z M84.362,59.49
				c2.499,0.162,4.785,0.287,6.909-0.892c2.458-1.364,3.282-3.549,2.964-6.201c-0.287-2.396-1.719-3.962-4.046-4.479
				c-1.559-0.347-3.194-0.364-4.797-0.505c-0.727-0.064-1.047,0.273-1.042,1.04C84.376,52.078,84.362,55.702,84.362,59.49z"/>
			<path fill="#0A5B60" d="M58.106,57.511c3.066,0,5.865-0.021,8.663,0.007c2.119,0.021,3.399,0.966,3.707,2.65
				c0.39,2.136-1.104,3.856-3.483,3.906c-2.357,0.05-4.717,0.012-7.075,0.012c-0.532,0-1.064,0-1.803,0
				c0,3.3-0.032,6.475,0.056,9.646c0.008,0.272,0.804,0.738,1.241,0.747c3.192,0.068,6.387,0.064,9.581,0.035
				c1.492-0.013,2.612,0.526,3.104,1.966c0.505,1.478,0.455,2.979-0.779,4.078c-0.569,0.507-1.459,0.905-2.21,0.917
				c-4.912,0.08-9.827,0.081-14.74,0.023c-2.132-0.025-3.965-0.799-3.936-3.965c0.099-10.76,0.032-21.521,0.041-32.282
				c0.003-3.392,0.898-4.267,4.282-4.268c4.373-0.001,8.746,0.025,13.119-0.014c1.41-0.012,2.528,0.431,3.178,1.69
				c0.646,1.251,0.619,2.561-0.068,3.804c-0.569,1.029-1.454,1.518-2.664,1.506c-2.899-0.03-5.798,0.026-8.697-0.022
				c-1.086-0.018-1.594,0.222-1.548,1.468C58.173,52.051,58.106,54.693,58.106,57.511z"/>
		</g>
	</g>
	<g id="_x36_bCuOK_2_">
		<g>
			<path fill="#FFFFFF" d="M38.226,62.6c1.952,4.097,3.841,8.081,5.748,12.056c0.626,1.305,1.332,2.623,0.236,3.977
				c-1.17,1.446-2.802,2.142-4.576,1.711c-0.837-0.203-1.771-1.076-2.156-1.886c-2.043-4.292-3.924-8.662-5.865-13.003
				c-0.511-1.143-2.996-1.945-3.928-1.183c-0.289,0.236-0.345,0.871-0.349,1.325c-0.027,3.832-0.006,7.665-0.021,11.497
				c-0.009,2.408-1.105,3.367-3.769,3.354c-2.524-0.013-3.769-1.138-3.77-3.441c-0.004-11.153-0.006-22.307,0.001-33.46
				c0.002-2.54,1.146-3.671,3.696-3.678c3.341-0.009,6.682-0.009,10.023,0c5.754,0.014,9.929,2.973,11.322,8.01
				c1.536,5.553-0.546,11.043-5.285,13.933C39.162,62.039,38.786,62.263,38.226,62.6z M27.322,52.412c0.001,0,0.003,0,0.004,0
				c0,1.665-0.041,3.333,0.033,4.995c0.016,0.355,0.428,0.976,0.688,0.993c2.201,0.139,4.405,0.19,6.417-0.995
				c2.182-1.285,3.072-3.268,2.896-5.679c-0.186-2.545-1.568-4.328-4.096-4.924c-1.458-0.344-2.994-0.361-4.495-0.516
				c-1.049-0.108-1.514,0.313-1.464,1.426C27.375,49.275,27.322,50.844,27.322,52.412z"/>
			<path fill="#FFFFFF" d="M95.025,62.613c1.969,4.14,3.865,8.17,5.804,12.18c0.637,1.319,1.307,2.593,0.106,3.932
				c-1.285,1.434-2.956,2.082-4.767,1.595c-0.786-0.212-1.587-1.147-1.967-1.95c-1.801-3.809-3.454-7.688-5.169-11.538
				c-1.31-2.939-1.317-2.936-4.747-2.6c-0.026,0.483-0.076,0.998-0.077,1.512c-0.007,3.733,0.006,7.467-0.008,11.2
				c-0.009,2.399-1.171,3.482-3.706,3.503c-2.685,0.022-3.894-1.005-3.897-3.439c-0.017-11.102-0.02-22.204,0.001-33.306
				c0.005-2.885,1.03-3.832,3.96-3.835c3.242-0.003,6.484-0.006,9.727,0.001c5.647,0.013,10.144,3.018,11.282,7.854
				c1.384,5.884-0.167,10.981-5.248,14.084C95.946,62.034,95.577,62.268,95.025,62.613z M84.207,58.372
				c2.499,0.162,4.785,0.287,6.909-0.892c2.458-1.364,3.282-3.549,2.964-6.201c-0.287-2.396-1.719-3.962-4.046-4.479
				c-1.56-0.347-3.194-0.364-4.797-0.505c-0.727-0.064-1.047,0.273-1.042,1.04C84.22,50.961,84.207,54.585,84.207,58.372z"/>
			<path fill="#FFFFFF" d="M57.951,56.394c3.066,0,5.865-0.021,8.663,0.007c2.119,0.021,3.399,0.966,3.707,2.65
				c0.39,2.136-1.104,3.856-3.483,3.906c-2.357,0.05-4.717,0.012-7.075,0.012c-0.532,0-1.064,0-1.803,0
				c0,3.3-0.032,6.475,0.056,9.646c0.008,0.272,0.804,0.738,1.241,0.747c3.192,0.068,6.387,0.064,9.581,0.035
				c1.492-0.013,2.612,0.526,3.104,1.966c0.505,1.478,0.455,2.979-0.779,4.078c-0.569,0.507-1.459,0.905-2.21,0.917
				c-4.912,0.08-9.827,0.081-14.74,0.023c-2.132-0.025-3.965-0.799-3.936-3.965c0.099-10.76,0.032-21.521,0.041-32.282
				c0.003-3.392,0.898-4.267,4.282-4.268c4.373-0.001,8.746,0.025,13.119-0.014c1.41-0.012,2.528,0.431,3.178,1.69
				c0.646,1.251,0.619,2.561-0.068,3.804c-0.569,1.029-1.454,1.518-2.664,1.506c-2.899-0.03-5.798,0.026-8.697-0.022
				c-1.086-0.018-1.594,0.222-1.548,1.468C58.018,50.934,57.951,53.576,57.951,56.394z"/>
		</g>
	</g>
</g>
</svg>
