<?xml version="1.0" encoding="utf-8"?>
<!-- Generator: Adobe Illustrator 17.0.0, SVG Export Plug-In . SVG Version: 6.00 Build 0)  -->
<!DOCTYPE svg PUBLIC "-//W3C//DTD SVG 1.1//EN" "http://www.w3.org/Graphics/SVG/1.1/DTD/svg11.dtd">
<svg version="1.1" id="Layer_1" xmlns="http://www.w3.org/2000/svg" xmlns:xlink="http://www.w3.org/1999/xlink" x="0px" y="0px"
	 width="122px" height="122px" viewBox="0 0 122 122" enable-background="new 0 0 122 122" xml:space="preserve">
<g>
	
		<radialGradient id="SVGID_1_" cx="52.1778" cy="48.825" r="65.9442" gradientTransform="matrix(0.5228 0.8524 -0.8894 0.5455 68.3251 -22.2882)" gradientUnits="userSpaceOnUse">
		<stop  offset="0.0357" style="stop-color:#85BDC7"/>
		<stop  offset="0.9286" style="stop-color:#4299A8"/>
		<stop  offset="1" style="stop-color:#307982"/>
	</radialGradient>
	<circle fill="url(#SVGID_1_)" stroke="#025672" stroke-width="2" stroke-miterlimit="10" cx="61.456" cy="61.049" r="58.998"/>
	<circle fill="none" stroke="#34848F" stroke-miterlimit="10" cx="61.456" cy="61.049" r="55.632"/>
	<path fill="#0A5B60" d="M73.75,46.5c0-0.828-0.526-1.5-1.175-1.5h-21.15c-0.648,0-1.175,0.672-1.175,1.5l0,0
		c0,0.828,0.526,1.5,1.175,1.5h21.15C73.224,48,73.75,47.328,73.75,46.5L73.75,46.5z"/>
	<path fill="#0A5B60" d="M48.509,65.594c-2.849,0-5.151,3.854-5.151,3.854c0-2.846,2.303-5.148,5.151-5.148
		c2.841,0,5.15,2.303,5.15,5.148C53.659,69.448,51.35,65.594,48.509,65.594z"/>
	<path fill="#0A5B60" d="M74.9,65.597c-2.84,0-5.151,3.851-5.151,3.851c0-2.848,2.311-5.15,5.151-5.15
		c2.846,0,5.151,2.303,5.151,5.15C80.052,69.448,77.746,65.597,74.9,65.597z"/>
	<path fill="#FFFFFF" d="M80,58.441v-3.345C80,48.376,75.27,43,68.549,43h-1.198C67.359,43,67,42.715,67,42.636v-0.284
		C67,40.294,65.865,38,63.807,38h-4.409C57.339,38,56,40.294,56,42.352v0.284C56,42.715,56.003,43,56.009,43h-0.647
		C48.64,43,43,48.376,43,55.097v3.103c-3,0.465-5,0.885-5,3.493s0,13.636,0,13.636C38,78.571,40.247,81,43.488,81H44v3.469
		c0,2.526,2.475,4.576,5,4.576c2.527,0,5-2.05,5-4.576V81h15v3.469c0,2.526,2.473,4.576,5,4.576c2.527,0,5-2.05,5-4.576V81h1.116
		C83.359,81,85,78.571,85,75.328c0,0,0-10.841,0-13.636C85,58.896,83,58.901,80,58.441z M48.509,74.594
		c-2.849,0-5.151-2.304-5.151-5.146c0-2.846,2.303-5.148,5.151-5.148c2.841,0,5.15,2.303,5.15,5.148
		C53.659,72.29,51.35,74.594,48.509,74.594z M51.29,60C49.567,60,50,57.866,50,56.145v-0.635C50,50.913,51.9,46,56.5,46h9.849
		C70.947,46,73,50.913,73,55.511v0.635C73,57.866,73.279,60,71.559,60H51.29z M74.9,74.597c-2.84,0-5.151-2.304-5.151-5.149
		c0-2.848,2.311-5.15,5.151-5.15c2.846,0,5.151,2.303,5.151,5.15C80.052,72.293,77.746,74.597,74.9,74.597z"/>
	<path fill="#0A5B60" d="M65,43v-0.223C65,41.294,64.675,39,63.19,39h-3.18C58.525,39,58,41.294,58,42.777V43"/>
</g>
</svg>
