<?xml version="1.0" encoding="utf-8"?>
<!-- Generator: Adobe Illustrator 17.0.0, SVG Export Plug-In . SVG Version: 6.00 Build 0)  -->
<!DOCTYPE svg PUBLIC "-//W3C//DTD SVG 1.1//EN" "http://www.w3.org/Graphics/SVG/1.1/DTD/svg11.dtd">
<svg version="1.1" id="Layer_1" xmlns="http://www.w3.org/2000/svg" xmlns:xlink="http://www.w3.org/1999/xlink" x="0px" y="0px"
	 width="122px" height="122px" viewBox="0 0 122 122" enable-background="new 0 0 122 122" xml:space="preserve">
<g>
	
		<radialGradient id="SVGID_1_" cx="51.9669" cy="48.825" r="65.9442" gradientTransform="matrix(0.5228 0.8524 -0.8894 0.5455 68.2244 -22.1084)" gradientUnits="userSpaceOnUse">
		<stop  offset="0.0357" style="stop-color:#85BDC7"/>
		<stop  offset="0.9286" style="stop-color:#4299A8"/>
		<stop  offset="1" style="stop-color:#307982"/>
	</radialGradient>
	<circle fill="url(#SVGID_1_)" stroke="#025672" stroke-width="2" stroke-miterlimit="10" cx="61.245" cy="61.049" r="58.998"/>
	<circle fill="none" stroke="#34848F" stroke-miterlimit="10" cx="61.245" cy="61.049" r="55.632"/>
	<path fill="#0A5B60" d="M77,34.5c0-0.828-0.672-1.5-1.5-1.5h-27c-0.828,0-1.5,0.672-1.5,1.5l0,0c0,0.828,0.672,1.5,1.5,1.5h27
		C76.328,36,77,35.328,77,34.5L77,34.5z"/>
	<path fill="#0A5B60" d="M74.322,20.765H52.657c-14.575,0-22.438,8.708-22.438,16.901v40.945v5.509h3.936v-5.509V37.666
		c0-8.592,9.532-13.229,18.501-13.229h21.666c9.507,0,14.96,4.821,14.96,13.229v40.945v5.509h3.937v-5.509V37.666
		C93.219,27.241,85.978,20.765,74.322,20.765z"/>
	<g>
		<g>
			<path fill="#FFFFFF" d="M74.322,17.765H52.657c-14.575,0-22.438,9.333-22.438,18.115v43.885v5.904h3.936v-5.904V35.88
				c0-9.209,9.532-14.179,18.501-14.179h21.666c9.507,0,14.96,5.167,14.96,14.179v43.885v5.904h3.937v-5.904V35.88
				C93.219,24.706,85.978,17.765,74.322,17.765z"/>
			<path fill="#FFFFFF" d="M70.008,27H53.092C44.977,27,39,33.254,39,41.368v36.129C39,80.534,40.859,83,43.897,83h2.19
				l-3.816,14.918c-0.265,1.023,0.351,2.155,1.375,2.42c0.161,0.041,0.322,0.103,0.48,0.103c0.853,0,1.63-0.722,1.853-1.586
				L50.043,83H73.49l4.064,15.877c0.223,0.863,1,1.522,1.853,1.522c0.159,0,0.32,0.023,0.481-0.018
				c1.023-0.266,1.639-1.461,1.374-2.485L77.446,83h1.756C82.238,83,85,80.534,85,77.497V41.368C85,33.254,78.122,27,70.008,27z
				 M47,44.389C47,38.833,50.043,33,55.599,33h11.9C73.056,33,77,38.833,77,44.389v8.824C77,55.293,75.874,57,73.795,57h-24.49
				C47.223,57,47,55.293,47,53.213V44.389z M49.174,76.585c-2.677,0-4.843-2.166-4.843-4.838c0-2.674,2.166-4.839,4.843-4.839
				c2.669,0,4.842,2.165,4.842,4.839C54.016,74.419,51.843,76.585,49.174,76.585z M73.982,76.587c-2.669,0-4.842-2.165-4.842-4.84
				c0-2.677,2.173-4.842,4.842-4.842c2.676,0,4.843,2.165,4.843,4.842C78.825,74.422,76.658,76.587,73.982,76.587z"/>
		</g>
	</g>
	<path fill="#0A5B60" d="M49.174,67.908c2.499,0,4.537,1.903,4.791,4.339c0.018-0.167,0.051-0.329,0.051-0.5
		c0-2.674-2.172-4.839-4.842-4.839c-2.677,0-4.843,2.165-4.843,4.839c0,0.171,0.033,0.333,0.05,0.5
		C44.635,69.811,46.668,67.908,49.174,67.908z"/>
	<path fill="#0A5B60" d="M73.982,67.905c2.505,0,4.539,1.904,4.792,4.342c0.018-0.167,0.051-0.329,0.051-0.5
		c0-2.677-2.167-4.842-4.843-4.842c-2.669,0-4.842,2.165-4.842,4.842c0,0.171,0.033,0.333,0.051,0.5
		C69.445,69.81,71.484,67.905,73.982,67.905z"/>
</g>
</svg>
