<?xml version="1.0" encoding="utf-8"?>
<!-- Generator: Adobe Illustrator 17.0.0, SVG Export Plug-In . SVG Version: 6.00 Build 0)  -->
<!DOCTYPE svg PUBLIC "-//W3C//DTD SVG 1.1//EN" "http://www.w3.org/Graphics/SVG/1.1/DTD/svg11.dtd">
<svg version="1.1" id="Layer_1" xmlns="http://www.w3.org/2000/svg" xmlns:xlink="http://www.w3.org/1999/xlink" x="0px" y="0px"
	 width="122px" height="122px" viewBox="0 0 122 122" enable-background="new 0 0 122 122" xml:space="preserve">
<g>
	
		<radialGradient id="SVGID_1_" cx="52.1778" cy="49.0291" r="65.9442" gradientTransform="matrix(0.5228 0.8524 -0.8894 0.5455 68.5066 -22.1954)" gradientUnits="userSpaceOnUse">
		<stop  offset="0.0357" style="stop-color:#85BDC7"/>
		<stop  offset="0.9286" style="stop-color:#4299A8"/>
		<stop  offset="1" style="stop-color:#307982"/>
	</radialGradient>
	<circle fill="url(#SVGID_1_)" stroke="#025672" stroke-width="2" stroke-miterlimit="10" cx="61.456" cy="61.253" r="58.998"/>
	<circle fill="none" stroke="#34848F" stroke-miterlimit="10" cx="61.456" cy="61.253" r="55.632"/>
	<path fill="#0A5B60" d="M77,33.5c0-0.828-0.672-1.5-1.5-1.5h-27c-0.828,0-1.5,0.672-1.5,1.5l0,0c0,0.828,0.672,1.5,1.5,1.5h27
		C76.328,35,77,34.328,77,33.5L77,33.5z"/>
	<path fill="#0A5B60" d="M49.385,67.112c2.498,0,4.537,1.904,4.791,4.34c0.018-0.168,0.051-0.33,0.051-0.5
		c0-2.674-2.172-4.84-4.842-4.84c-2.678,0-4.843,2.166-4.843,4.84c0,0.17,0.033,0.332,0.05,0.5
		C44.846,69.017,46.879,67.112,49.385,67.112z"/>
	<path fill="#0A5B60" d="M74.193,67.11c2.505,0,4.539,1.904,4.792,4.342c0.018-0.168,0.051-0.33,0.051-0.5
		c0-2.678-2.167-4.842-4.843-4.842c-2.669,0-4.842,2.164-4.842,4.842c0,0.17,0.033,0.332,0.051,0.5
		C69.656,69.015,71.695,67.11,74.193,67.11z"/>
	<path fill="#FFFFFF" d="M69.18,25h-1.221l5.219-7h3.03c1.029,0,1.865-0.471,1.865-1.5S77.237,15,76.208,15H45.127
		c-1.029,0-1.865,0.471-1.865,1.5s0.836,1.5,1.865,1.5h3.135l5.218,7h-0.462C44.778,25,38,31.597,38,39.837v36.686
		C38,79.606,40.599,82,43.682,82h1.811l-3.971,15.396c-0.259,0.998,0.341,2.043,1.338,2.301c0.156,0.039,0.314,0.073,0.468,0.073
		c0.83,0,1.587-0.606,1.805-1.446L49.345,82h22.774l4.213,16.333c0.217,0.84,0.975,1.424,1.804,1.424
		c0.154,0,0.312-0.005,0.469-0.046c0.997-0.258,1.597-1.325,1.338-2.319L75.972,82h2.543C81.599,82,84,79.606,84,76.522V39.837
		C84,31.597,77.418,25,69.18,25z M52.319,18H69.12l-5.217,7h-6.367L52.319,18z M47,43.593C47,38.038,50.254,32,55.81,32h11.9
		C73.267,32,77,38.038,77,43.593v8.824C77,54.497,76.085,56,74.006,56h-24.49C47.434,56,47,54.497,47,52.417V43.593z M49.385,75.79
		c-2.678,0-4.843-2.166-4.843-4.838c0-2.674,2.165-4.84,4.843-4.84c2.67,0,4.842,2.166,4.842,4.84
		C54.227,73.624,52.055,75.79,49.385,75.79z M74.193,75.792c-2.669,0-4.842-2.166-4.842-4.84c0-2.678,2.173-4.842,4.842-4.842
		c2.676,0,4.843,2.164,4.843,4.842C79.036,73.626,76.869,75.792,74.193,75.792z"/>
</g>
</svg>
