<?xml version="1.0" encoding="utf-8"?>
<!-- Generator: Adobe Illustrator 17.0.0, SVG Export Plug-In . SVG Version: 6.00 Build 0)  -->
<!DOCTYPE svg PUBLIC "-//W3C//DTD SVG 1.1//EN" "http://www.w3.org/Graphics/SVG/1.1/DTD/svg11.dtd">
<svg version="1.1" id="Layer_1" xmlns="http://www.w3.org/2000/svg" xmlns:xlink="http://www.w3.org/1999/xlink" x="0px" y="0px"
	 width="122px" height="122px" viewBox="0 0 122 122" enable-background="new 0 0 122 122" xml:space="preserve">
<g>
	
		<radialGradient id="SVGID_1_" cx="51.3888" cy="49.0291" r="65.9442" gradientTransform="matrix(0.5228 0.8524 -0.8894 0.5455 68.1301 -21.5228)" gradientUnits="userSpaceOnUse">
		<stop  offset="0.0357" style="stop-color:#85BDC7"/>
		<stop  offset="0.9286" style="stop-color:#4299A8"/>
		<stop  offset="1" style="stop-color:#307982"/>
	</radialGradient>
	<circle fill="url(#SVGID_1_)" stroke="#025672" stroke-width="2" stroke-miterlimit="10" cx="60.667" cy="61.253" r="58.998"/>
	<circle fill="none" stroke="#34848F" stroke-miterlimit="10" cx="60.667" cy="61.253" r="55.632"/>
	<g>
		<g>
			<path fill="#0A5B60" d="M47.427,48.763l-0.744,7.623c11.764,1.287,21.042,10.739,22.069,22.582l7.633-0.749
				C75.012,62.743,62.829,50.385,47.427,48.763z"/>
			<path fill="#0A5B60" d="M45.831,64.415l-1.313,13.379c0.029,1.696,1.392,3.053,3.076,3.086l13.387-1.313
				C60.207,71.561,53.839,65.186,45.831,64.415z"/>
			<path fill="#0A5B60" d="M48.794,33.647l-0.742,7.62c19.116,1.781,34.303,16.962,36.073,36.083l7.626-0.744
				C89.648,53.848,71.545,35.737,48.794,33.647z"/>
		</g>
		<g>
			<path fill="#FFFFFF" d="M44.661,49.454l-0.745,7.623c11.764,1.286,21.043,10.737,22.069,22.582l7.633-0.749
				C72.246,63.435,60.063,51.077,44.661,49.454z"/>
			<path fill="#FFFFFF" d="M43.064,65.107L41.75,78.485c0.03,1.696,1.391,3.053,3.076,3.086l13.386-1.313
				C57.441,72.252,51.072,65.878,43.064,65.107z"/>
			<path fill="#FFFFFF" d="M46.027,34.339l-0.742,7.62c19.116,1.781,34.302,16.962,36.073,36.083l7.626-0.744
				C86.882,54.54,68.779,36.429,46.027,34.339z"/>
		</g>
	</g>
</g>
</svg>
