<?xml version="1.0" encoding="iso-8859-1"?>
<!-- Generator: Adobe Illustrator 17.0.0, SVG Export Plug-In . SVG Version: 6.00 Build 0)  -->
<!DOCTYPE svg PUBLIC "-//W3C//DTD SVG 1.1//EN" "http://www.w3.org/Graphics/SVG/1.1/DTD/svg11.dtd">
<svg version="1.1" id="Logo" xmlns="http://www.w3.org/2000/svg" xmlns:xlink="http://www.w3.org/1999/xlink" x="0px" y="0px"
	 width="221px" height="52px" viewBox="0 0 221 52" style="enable-background:new 0 0 221 52;" xml:space="preserve">
<filter id="dropshadow" y="-10" height="52" x="-10" width="221">
    <feOffset in="SourceAlpha" dx="1" dy="2" result="offset2" />
    <feGaussianBlur in="offset2" stdDeviation="2" result="blur2"/>
    <feComponentTransfer>
        <feFuncA type="linear" slope="0.6"/>
    </feComponentTransfer>
    <feMerge>
        <feMergeNode/>
        <feMergeNode in="SourceGraphic" />
    </feMerge>
</filter>
<path style="fill:#FFFFFF;filter:url(#dropshadow)" d="M70.825,31.86v5.001L72.166,37v3.604h-7.878V37l1.313-0.139v-13.27l-1.313-0.14v-3.603h15.476v5.224
	h-3.185l-0.251-1.313h-5.503v4.414h8.325v3.688H70.825z"/>
<path style="fill:#FFFFFF;filter:url(#dropshadow)" d="M82.026,40.604v-3.547l1.285-0.14V22.501l-1.285-0.14v-3.548h6.146v18.103l1.285,0.14v3.547H82.026z"
	/>
<path style="fill:#FFFFFF;filter:url(#dropshadow)" d="M101.301,40.604V39.57c-1.061,0.699-2.905,1.425-5.028,1.425c-2.989,0-4.665-1.508-4.665-4.553
	v-0.643c0-4.246,3.241-4.721,7.766-4.721h1.48v-0.866c0-1.928-0.419-2.319-2.933-2.319c-0.587,0-1.117,0.028-1.732,0.056
	l-0.279,1.229h-3.128v-3.995c0.894-0.307,3.464-0.95,6.146-0.95c4.973,0,6.817,1.592,6.817,5.978v6.705l1.257,0.14v3.547H101.301z
	 M101.05,33.592h-1.621c-2.235,0-3.184,0.251-3.184,2.039v0.643c0,1.229,0.754,1.564,1.816,1.564c1.257,0,2.487-0.447,2.989-0.726
	V33.592z"/>
<path style="fill:#FFFFFF;filter:url(#dropshadow)" d="M115.185,40.995c-3.38,0-4.861-1.313-4.861-4.889v-7.934l-2.766-0.251v-3.297h2.766v-3.855h4.861
	v3.855h3.576v3.548h-3.548v7.878c0,1.285,0.084,1.564,1.313,1.564c0.726,0,1.257-0.056,2.207-0.112v3.073
	C118.314,40.688,116.805,40.995,115.185,40.995z"/>
<path style="fill:#FFFFFF;filter:url(#dropshadow)" d="M135.325,25.183l-0.279-1.425h-2.71v13.13l1.313,0.14v3.575h-7.878v-3.575l1.341-0.14v-13.13h-2.71
	l-0.279,1.425h-3.045v-5.336h17.265v5.336H135.325z"/>
<path style="fill:#FFFFFF;filter:url(#dropshadow)" d="M151.834,40.604v-1.285c-1.677,0.95-3.492,1.676-5.587,1.676c-4.358,0-4.861-3.045-4.861-6.258
	v-6.425l-1.285-0.168v-3.52h6.146v10.113c0,1.872,0.335,2.514,1.9,2.514c0.922,0,2.123-0.335,3.38-0.866v-8.073l-1.257-0.168v-3.52
	h6.146v12.292l1.285,0.167v3.52H151.834z"/>
<path style="fill:#FFFFFF;filter:url(#dropshadow)" d="M166.08,29.094v7.822l1.258,0.14v3.547h-7.403v-3.547l1.285-0.14v-8.604l-1.285-0.14v-3.548h5.811
	v1.341c1.564-1.453,3.52-1.732,5.252-1.732v4.163C169.237,28.396,167.337,28.703,166.08,29.094z"/>
<path style="fill:#FFFFFF;filter:url(#dropshadow)" d="M180.718,40.995c-3.381,0-4.861-1.313-4.861-4.889v-7.934l-2.765-0.251v-3.297h2.765v-3.855h4.861
	v3.855h3.575v3.548h-3.548v7.878c0,1.285,0.084,1.564,1.313,1.564c0.726,0,1.257-0.056,2.207-0.112v3.073
	C183.846,40.688,182.338,40.995,180.718,40.995z"/>
<path style="fill:#FFFFFF;filter:url(#dropshadow)" d="M186.639,40.604v-3.547l1.285-0.14V22.501l-1.285-0.14v-3.548h6.146v18.103l1.285,0.14v3.547H186.639
	z"/>
<path style="fill:#FFFFFF;filter:url(#dropshadow)" d="M200.801,33.955v0.223c0,2.04,0.28,3.129,3.716,3.129c1.62,0,4.414-0.112,5.978-0.279v3.268
	c-1.257,0.307-3.492,0.698-6.202,0.698c-5.867,0-8.325-2.095-8.325-7.57v-1.452c0-5.308,2.822-7.739,7.683-7.739
	c5.95,0,7.599,3.855,7.599,8.074v1.648H200.801z M206.501,31.05c0-1.76-0.363-3.297-2.85-3.297c-2.43,0-2.822,1.564-2.822,3.297
	v0.224h5.671V31.05z"/>
<g>
	<path style="fill:#FFFFFF;filter:url(#dropshadow)" d="M40.053,27.567l3.781-2.183v-4.427L40,18.744l-3.831,2.212l-5.087-2.937v-2.855h2.88V8.451h-6.713
		l-3.833,2.213v7.37l-2.554,1.475l0.006,0.011l-0.006,0.004l-0.006-0.011L18.33,20.97v-0.012l-3.834-2.214l-3.833,2.214v4.427
		l3.807,2.198v5.972l-3.807,2.198v4.427l3.833,2.213l3.833-2.213l2.525,1.458l0.006-0.011l0.006,0.004l-0.006,0.011l6.389,3.689
		l0.013-0.007l0.013,0.007l8.906-5.142L40,42.393l3.834-2.213v-4.427l-3.781-2.183V27.567z M27.275,17.47l5.025,2.9l-2.282,3.953
		h-5.554L22.199,20.4L27.275,17.47z M24.91,26.401h4.73l2.373,4.111l-2.373,4.111h-4.73l-2.373-4.111L24.91,26.401z M38.625,24.022
		v5.84h-4.568l-2.786-4.825l2.278-3.945L38.625,24.022z M38.625,31.289v5.839l-5.076,2.931l-2.278-3.945l2.786-4.825H38.625z
		 M29.23,10.478c0.759,0,1.375,0.616,1.375,1.375c0,0.76-0.615,1.376-1.375,1.376c-0.759,0-1.376-0.616-1.376-1.376
		C27.855,11.094,28.471,10.478,29.23,10.478z M15.924,37.129v-5.839h4.509l2.786,4.825l-2.263,3.919L15.924,37.129z M15.924,29.862
		v-5.84l5.032-2.905l2.263,3.92l-2.786,4.825H15.924z M27.275,43.682l-5.076-2.93l2.265-3.923h5.554l2.282,3.952L27.275,43.682z"/>
</g>
</svg>
